<svg id="visual" viewBox="0 0 900 600" width="900" height="600" xmlns="http://www.w3.org/2000/svg" xmlns:xlink="http://www.w3.org/1999/xlink" version="1.1"><g stroke-width="1" stroke-linejoin="bevel"><path d="M486 271L556 258L524 244Z" fill="#313100" stroke="#313100"></path><path d="M486 271L493 373L556 258Z" fill="#a8a300" stroke="#a8a300"></path><path d="M486 271L475 375L493 373Z" fill="#e1d600" stroke="#e1d600"></path><path d="M524 244L445 217L486 271Z" fill="#747300" stroke="#747300"></path><path d="M486 271L406 347L475 375Z" fill="#747300" stroke="#747300"></path><path d="M493 373L642 313L556 258Z" fill="#747300" stroke="#747300"></path><path d="M363 255L406 347L486 271Z" fill="#8e8b00" stroke="#8e8b00"></path><path d="M558 494L570 421L494 505Z" fill="#5b5c00" stroke="#5b5c00"></path><path d="M493 373L570 421L642 313Z" fill="#c4bc00" stroke="#c4bc00"></path><path d="M570 421L493 373L494 505Z" fill="#a8a300" stroke="#a8a300"></path><path d="M642 313L615 174L556 258Z" fill="#747300" stroke="#747300"></path><path d="M556 258L615 174L524 244Z" fill="#261c00" stroke="#261c00"></path><path d="M524 244L530 127L445 217Z" fill="#261c00" stroke="#261c00"></path><path d="M615 174L530 127L524 244Z" fill="#444600" stroke="#444600"></path><path d="M558 494L593 432L570 421Z" fill="#a8a300" stroke="#a8a300"></path><path d="M570 421L655 386L642 313Z" fill="#e1d600" stroke="#e1d600"></path><path d="M593 432L655 386L570 421Z" fill="#000000" stroke="#000000"></path><path d="M428 136L363 255L445 217Z" fill="#444600" stroke="#444600"></path><path d="M445 217L363 255L486 271Z" fill="#747300" stroke="#747300"></path><path d="M686 177L615 174L642 313Z" fill="#a8a300" stroke="#a8a300"></path><path d="M686 177L638 164L615 174Z" fill="#261c00" stroke="#261c00"></path><path d="M643 89L560 59L530 127Z" fill="#000000" stroke="#000000"></path><path d="M530 127L428 136L445 217Z" fill="#fff000" stroke="#fff000"></path><path d="M349 385L417 430L406 347Z" fill="#444600" stroke="#444600"></path><path d="M406 347L417 430L475 375Z" fill="#5b5c00" stroke="#5b5c00"></path><path d="M363 255L345 320L406 347Z" fill="#444600" stroke="#444600"></path><path d="M558 494L632 443L593 432Z" fill="#e1d600" stroke="#e1d600"></path><path d="M593 432L632 443L655 386Z" fill="#000000" stroke="#000000"></path><path d="M699 173L686 177L733 253Z" fill="#e1d600" stroke="#e1d600"></path><path d="M643 89L530 127L615 174Z" fill="#261c00" stroke="#261c00"></path><path d="M345 320L346 362L406 347Z" fill="#c4bc00" stroke="#c4bc00"></path><path d="M346 362L349 385L406 347Z" fill="#5b5c00" stroke="#5b5c00"></path><path d="M733 253L686 177L642 313Z" fill="#c4bc00" stroke="#c4bc00"></path><path d="M702 121L643 89L638 164Z" fill="#e1d600" stroke="#e1d600"></path><path d="M713 385L642 313L655 386Z" fill="#747300" stroke="#747300"></path><path d="M713 385L733 253L642 313Z" fill="#747300" stroke="#747300"></path><path d="M494 505L493 373L475 375Z" fill="#e1d600" stroke="#e1d600"></path><path d="M632 443L713 385L655 386Z" fill="#313100" stroke="#313100"></path><path d="M288 192L310 279L363 255Z" fill="#fff000" stroke="#fff000"></path><path d="M363 255L310 279L345 320Z" fill="#e1d600" stroke="#e1d600"></path><path d="M345 320L266 402L346 362Z" fill="#c4bc00" stroke="#c4bc00"></path><path d="M346 362L266 402L349 385Z" fill="#444600" stroke="#444600"></path><path d="M399 484L494 505L417 430Z" fill="#e1d600" stroke="#e1d600"></path><path d="M417 430L494 505L475 375Z" fill="#c4bc00" stroke="#c4bc00"></path><path d="M416 55L381 112L428 136Z" fill="#313100" stroke="#313100"></path><path d="M428 136L371 115L363 255Z" fill="#c4bc00" stroke="#c4bc00"></path><path d="M643 89L615 174L638 164Z" fill="#000000" stroke="#000000"></path><path d="M530 127L484 49L428 136Z" fill="#313100" stroke="#313100"></path><path d="M702 121L638 164L686 177Z" fill="#000000" stroke="#000000"></path><path d="M381 112L371 115L428 136Z" fill="#261c00" stroke="#261c00"></path><path d="M349 385L399 484L417 430Z" fill="#000000" stroke="#000000"></path><path d="M560 59L484 49L530 127Z" fill="#e1d600" stroke="#e1d600"></path><path d="M381 112L335 102L371 115Z" fill="#8e8b00" stroke="#8e8b00"></path><path d="M736 116L702 121L699 173Z" fill="#c4bc00" stroke="#c4bc00"></path><path d="M699 173L702 121L686 177Z" fill="#c4bc00" stroke="#c4bc00"></path><path d="M558 494L576 532L632 443Z" fill="#5b5c00" stroke="#5b5c00"></path><path d="M632 443L679 496L713 385Z" fill="#fff000" stroke="#fff000"></path><path d="M494 505L576 532L558 494Z" fill="#fff000" stroke="#fff000"></path><path d="M488 565L576 532L494 505Z" fill="#c4bc00" stroke="#c4bc00"></path><path d="M371 115L288 192L363 255Z" fill="#c4bc00" stroke="#c4bc00"></path><path d="M484 49L416 55L428 136Z" fill="#8e8b00" stroke="#8e8b00"></path><path d="M371 115L335 102L288 192Z" fill="#261c00" stroke="#261c00"></path><path d="M288 192L272 251L310 279Z" fill="#fff000" stroke="#fff000"></path><path d="M310 279L266 402L345 320Z" fill="#8e8b00" stroke="#8e8b00"></path><path d="M349 385L307 494L399 484Z" fill="#313100" stroke="#313100"></path><path d="M576 532L679 496L632 443Z" fill="#a8a300" stroke="#a8a300"></path><path d="M416 55L335 102L381 112Z" fill="#444600" stroke="#444600"></path><path d="M796 335L788 248L733 253Z" fill="#e1d600" stroke="#e1d600"></path><path d="M733 253L801 187L699 173Z" fill="#313100" stroke="#313100"></path><path d="M796 335L733 253L713 385Z" fill="#a8a300" stroke="#a8a300"></path><path d="M307 494L423 534L399 484Z" fill="#e1d600" stroke="#e1d600"></path><path d="M399 484L423 534L494 505Z" fill="#261c00" stroke="#261c00"></path><path d="M801 187L736 116L699 173Z" fill="#e1d600" stroke="#e1d600"></path><path d="M702 121L669 0L643 89Z" fill="#444600" stroke="#444600"></path><path d="M599 0L556 0L560 59Z" fill="#5b5c00" stroke="#5b5c00"></path><path d="M777 421L796 335L713 385Z" fill="#5b5c00" stroke="#5b5c00"></path><path d="M423 534L488 565L494 505Z" fill="#261c00" stroke="#261c00"></path><path d="M576 532L650 600L679 496Z" fill="#e1d600" stroke="#e1d600"></path><path d="M207 274L266 402L310 279Z" fill="#e1d600" stroke="#e1d600"></path><path d="M679 496L777 421L713 385Z" fill="#000000" stroke="#000000"></path><path d="M288 192L255 190L272 251Z" fill="#000000" stroke="#000000"></path><path d="M272 251L207 274L310 279Z" fill="#000000" stroke="#000000"></path><path d="M255 154L255 190L288 192Z" fill="#a8a300" stroke="#a8a300"></path><path d="M599 0L560 59L643 89Z" fill="#e1d600" stroke="#e1d600"></path><path d="M560 59L556 0L484 49Z" fill="#c4bc00" stroke="#c4bc00"></path><path d="M484 49L429 0L416 55Z" fill="#313100" stroke="#313100"></path><path d="M788 248L801 187L733 253Z" fill="#261c00" stroke="#261c00"></path><path d="M816 227L801 187L788 248Z" fill="#8e8b00" stroke="#8e8b00"></path><path d="M669 0L599 0L643 89Z" fill="#313100" stroke="#313100"></path><path d="M796 335L816 227L788 248Z" fill="#261c00" stroke="#261c00"></path><path d="M335 102L255 154L288 192Z" fill="#000000" stroke="#000000"></path><path d="M556 0L429 0L484 49Z" fill="#000000" stroke="#000000"></path><path d="M416 55L325 0L335 102Z" fill="#c4bc00" stroke="#c4bc00"></path><path d="M335 102L238 118L255 154Z" fill="#e1d600" stroke="#e1d600"></path><path d="M266 402L307 494L349 385Z" fill="#313100" stroke="#313100"></path><path d="M432 600L528 600L488 565Z" fill="#261c00" stroke="#261c00"></path><path d="M777 421L816 386L796 335Z" fill="#5b5c00" stroke="#5b5c00"></path><path d="M796 335L900 247L816 227Z" fill="#313100" stroke="#313100"></path><path d="M432 600L488 565L423 534Z" fill="#8e8b00" stroke="#8e8b00"></path><path d="M488 565L528 600L576 532Z" fill="#a8a300" stroke="#a8a300"></path><path d="M528 600L549 600L576 532Z" fill="#261c00" stroke="#261c00"></path><path d="M781 545L827 404L777 421Z" fill="#fff000" stroke="#fff000"></path><path d="M176 234L207 274L255 190Z" fill="#c4bc00" stroke="#c4bc00"></path><path d="M255 190L207 274L272 251Z" fill="#c4bc00" stroke="#c4bc00"></path><path d="M266 402L259 505L307 494Z" fill="#747300" stroke="#747300"></path><path d="M736 0L702 121L736 116Z" fill="#8e8b00" stroke="#8e8b00"></path><path d="M736 0L669 0L702 121Z" fill="#c4bc00" stroke="#c4bc00"></path><path d="M781 545L777 421L679 496Z" fill="#8e8b00" stroke="#8e8b00"></path><path d="M777 421L827 404L816 386Z" fill="#261c00" stroke="#261c00"></path><path d="M900 340L900 247L796 335Z" fill="#444600" stroke="#444600"></path><path d="M331 600L432 600L423 534Z" fill="#c4bc00" stroke="#c4bc00"></path><path d="M263 0L238 118L335 102Z" fill="#e1d600" stroke="#e1d600"></path><path d="M255 154L176 234L255 190Z" fill="#313100" stroke="#313100"></path><path d="M549 600L650 600L576 532Z" fill="#e1d600" stroke="#e1d600"></path><path d="M202 410L259 505L266 402Z" fill="#261c00" stroke="#261c00"></path><path d="M307 494L331 600L423 534Z" fill="#c4bc00" stroke="#c4bc00"></path><path d="M207 274L202 410L266 402Z" fill="#a8a300" stroke="#a8a300"></path><path d="M429 0L325 0L416 55Z" fill="#8e8b00" stroke="#8e8b00"></path><path d="M238 118L176 234L255 154Z" fill="#c4bc00" stroke="#c4bc00"></path><path d="M207 274L153 406L202 410Z" fill="#8e8b00" stroke="#8e8b00"></path><path d="M836 46L736 0L736 116Z" fill="#e1d600" stroke="#e1d600"></path><path d="M836 46L736 116L801 187Z" fill="#a8a300" stroke="#a8a300"></path><path d="M750 600L781 545L679 496Z" fill="#747300" stroke="#747300"></path><path d="M283 600L331 600L307 494Z" fill="#fff000" stroke="#fff000"></path><path d="M900 340L796 335L816 386Z" fill="#c4bc00" stroke="#c4bc00"></path><path d="M816 227L900 175L801 187Z" fill="#444600" stroke="#444600"></path><path d="M900 340L816 386L900 354Z" fill="#e1d600" stroke="#e1d600"></path><path d="M900 354L816 386L827 404Z" fill="#8e8b00" stroke="#8e8b00"></path><path d="M900 438L900 354L827 404Z" fill="#e1d600" stroke="#e1d600"></path><path d="M194 502L234 535L259 505Z" fill="#747300" stroke="#747300"></path><path d="M259 505L283 600L307 494Z" fill="#313100" stroke="#313100"></path><path d="M650 600L750 600L679 496Z" fill="#000000" stroke="#000000"></path><path d="M873 545L900 438L827 404Z" fill="#000000" stroke="#000000"></path><path d="M325 0L263 0L335 102Z" fill="#444600" stroke="#444600"></path><path d="M85 112L126 256L176 234Z" fill="#fff000" stroke="#fff000"></path><path d="M126 256L153 406L207 274Z" fill="#444600" stroke="#444600"></path><path d="M202 410L194 502L259 505Z" fill="#313100" stroke="#313100"></path><path d="M900 247L900 175L816 227Z" fill="#261c00" stroke="#261c00"></path><path d="M263 0L257 0L238 118Z" fill="#c4bc00" stroke="#c4bc00"></path><path d="M900 120L836 46L801 187Z" fill="#000000" stroke="#000000"></path><path d="M151 462L194 502L202 410Z" fill="#261c00" stroke="#261c00"></path><path d="M190 600L283 600L234 535Z" fill="#c4bc00" stroke="#c4bc00"></path><path d="M234 535L283 600L259 505Z" fill="#fff000" stroke="#fff000"></path><path d="M147 106L176 234L238 118Z" fill="#fff000" stroke="#fff000"></path><path d="M176 234L126 256L207 274Z" fill="#c4bc00" stroke="#c4bc00"></path><path d="M873 545L827 404L781 545Z" fill="#e1d600" stroke="#e1d600"></path><path d="M257 0L168 85L238 118Z" fill="#8e8b00" stroke="#8e8b00"></path><path d="M900 175L900 120L801 187Z" fill="#444600" stroke="#444600"></path><path d="M71 406L151 462L153 406Z" fill="#a8a300" stroke="#a8a300"></path><path d="M153 406L151 462L202 410Z" fill="#fff000" stroke="#fff000"></path><path d="M194 502L190 600L234 535Z" fill="#000000" stroke="#000000"></path><path d="M168 85L147 106L238 118Z" fill="#444600" stroke="#444600"></path><path d="M875 600L873 545L781 545Z" fill="#444600" stroke="#444600"></path><path d="M900 0L860 0L836 46Z" fill="#000000" stroke="#000000"></path><path d="M836 46L860 0L736 0Z" fill="#fff000" stroke="#fff000"></path><path d="M873 545L900 528L900 438Z" fill="#313100" stroke="#313100"></path><path d="M163 600L190 600L194 502Z" fill="#000000" stroke="#000000"></path><path d="M126 256L67 342L153 406Z" fill="#444600" stroke="#444600"></path><path d="M151 462L163 600L194 502Z" fill="#313100" stroke="#313100"></path><path d="M32 301L67 342L126 256Z" fill="#8e8b00" stroke="#8e8b00"></path><path d="M67 342L71 406L153 406Z" fill="#a8a300" stroke="#a8a300"></path><path d="M750 600L875 600L781 545Z" fill="#8e8b00" stroke="#8e8b00"></path><path d="M873 545L900 600L900 528Z" fill="#000000" stroke="#000000"></path><path d="M900 120L900 0L836 46Z" fill="#8e8b00" stroke="#8e8b00"></path><path d="M103 0L85 112L147 106Z" fill="#5b5c00" stroke="#5b5c00"></path><path d="M147 106L85 112L176 234Z" fill="#444600" stroke="#444600"></path><path d="M63 100L85 112L103 0Z" fill="#fff000" stroke="#fff000"></path><path d="M47 576L163 600L151 462Z" fill="#e1d600" stroke="#e1d600"></path><path d="M875 600L900 600L873 545Z" fill="#313100" stroke="#313100"></path><path d="M67 342L0 360L71 406Z" fill="#313100" stroke="#313100"></path><path d="M28 206L32 301L126 256Z" fill="#000000" stroke="#000000"></path><path d="M103 0L147 106L168 85Z" fill="#444600" stroke="#444600"></path><path d="M85 112L28 206L126 256Z" fill="#c4bc00" stroke="#c4bc00"></path><path d="M0 174L28 206L85 112Z" fill="#e1d600" stroke="#e1d600"></path><path d="M257 0L103 0L168 85Z" fill="#747300" stroke="#747300"></path><path d="M0 174L0 268L28 206Z" fill="#c4bc00" stroke="#c4bc00"></path><path d="M28 206L0 268L32 301Z" fill="#5b5c00" stroke="#5b5c00"></path><path d="M32 301L0 360L67 342Z" fill="#5b5c00" stroke="#5b5c00"></path><path d="M0 485L47 576L151 462Z" fill="#000000" stroke="#000000"></path><path d="M0 268L0 316L32 301Z" fill="#a8a300" stroke="#a8a300"></path><path d="M0 316L0 360L32 301Z" fill="#8e8b00" stroke="#8e8b00"></path><path d="M63 100L0 174L85 112Z" fill="#a8a300" stroke="#a8a300"></path><path d="M0 60L0 174L63 100Z" fill="#e1d600" stroke="#e1d600"></path><path d="M103 0L68 0L63 100Z" fill="#5b5c00" stroke="#5b5c00"></path><path d="M0 360L0 420L71 406Z" fill="#a8a300" stroke="#a8a300"></path><path d="M0 485L151 462L71 406Z" fill="#8e8b00" stroke="#8e8b00"></path><path d="M0 420L0 485L71 406Z" fill="#e1d600" stroke="#e1d600"></path><path d="M68 0L0 60L63 100Z" fill="#000000" stroke="#000000"></path><path d="M0 600L34 600L47 576Z" fill="#444600" stroke="#444600"></path><path d="M47 576L34 600L163 600Z" fill="#5b5c00" stroke="#5b5c00"></path><path d="M68 0L0 0L0 60Z" fill="#5b5c00" stroke="#5b5c00"></path><path d="M0 485L0 600L47 576Z" fill="#747300" stroke="#747300"></path></g></svg>